PathFileType	4	(X/Y/Z)	subject01_walk1.trc
DataRate	CameraRate	NumFrames	NumMarkers	Units	OrigDataRate	OrigDataStartFrame	OrigNumFrames
60.00	60.00	       4	41	mm	60.00	1	       251
Frame#	Time	R.ASIS			L.ASIS			V.Sacral			R.Thigh.Upper			R.Thigh.Front			R.Thigh.Rear			L.Thigh.Upper			L.Thigh.Front			L.Thigh.Rear			R.Shank.Upper			R.Shank.Front			R.Shank.Rear			L.Shank.Upper			L.Shank.Front			L.Shank.Rear			R.Heel			R.Midfoot.Sup			R.Midfoot.Lat			R.Toe.Tip			L.Heel			L.Midfoot.Sup			L.Midfoot.Lat			L.Toe.Tip			Sternum			R.Acromium			L.Acromium			R.Bicep			L.Bicep			R.Elbow			L.Elbow			R.Wrist.Med			R.Wrist.Lat			L.Wrist.Med			L.Wrist.Lat			R.Toe.Lat			R.Toe.Med			L.Toe.Lat			L.Toe.Med			R.Temple			L.Temple			Top.Head			
		X1	Y1	Z1	X2	Y2	Z2	X3	Y3	Z3	X4	Y4	Z4	X5	Y5	Z5	X6	Y6	Z6	X7	Y7	Z7	X8	Y8	Z8	X9	Y9	Z9	X10	Y10	Z10	X11	Y11	Z11	X12	Y12	Z12	X13	Y13	Z13	X14	Y14	Z14	X15	Y15	Z15	X16	Y16	Z16	X17	Y17	Z17	X18	Y18	Z18	X19	Y19	Z19	X20	Y20	Z20	X21	Y21	Z21	X22	Y22	Z22	X23	Y23	Z23	X24	Y24	Z24	X25	Y25	Z25	X26	Y26	Z26	X27	Y27	Z27	X28	Y28	Z28	X29	Y29	Z29	X30	Y30	Z30	X31	Y31	Z31	X32	Y32	Z32	X33	Y33	Z33	X34	Y34	Z34	X35	Y35	Z35	X36	Y36	Z36	X37	Y37	Z37	X38	Y38	Z38	X39	Y39	Z39	X40	Y40	Z40	X41	Y41	Z41	

1      0.00000000	    617.24762000	   1055.27502000	    170.78198000	    639.60638000	   1044.25842000	    -88.90979000	    430.86984000	   1051.26465000	     29.96675000	    517.33270000	    741.09601000	    212.08337000	    570.20148000	    666.70557000	    123.68554000	    480.06427000	    626.51483000	    199.55385000	    659.57892000	    745.05798000	   -145.97218000	    750.48090000	    735.85010000	    -73.48505000	    697.42963000	    642.68182000	   -137.36960000	    360.90390000	    474.04004000	    186.84929000	    420.86743000	    412.36603000	    134.71933000	    343.73737000	    388.03668000	    189.83162000	    750.32623000	    446.17697000	   -128.52777000	    819.76385000	    415.13217000	    -81.70000000	    750.04584000	    397.94098000	   -138.88400000	    156.44276000	    113.07307000	    104.00257000	    297.18088000	     88.12213000	     67.06850000	    288.24664000	     73.76623000	    176.63014000	    429.09286000	     43.08610000	    110.59769000	    815.76416000	     63.39788000	    -51.75869000	    967.98993000	    122.58054000	    -32.77040000	    943.78925000	    105.33720000	   -122.34442000	   1078.70935000	    143.54796000	    -60.93587000	    660.82678000	   1353.77527000	     20.19839000	    566.59839000	   1449.57959000	    229.99652000	    596.42383000	   1468.96814000	   -186.70021000	    593.64148000	   1249.10791000	    279.77640000	    580.73468000	   1233.74133000	   -222.92732000	    567.00250000	   1143.10925000	    315.56631000	    518.10278000	   1146.32483000	   -260.95828000	    771.56329000	    973.77911000	    273.78760000	    746.20697000	    944.37811000	    327.45282000	    619.82306000	    916.16980000	   -218.32727000	    574.16254000	    905.87732000	   -276.12146000	    366.12296000	     35.90821000	    193.14078000	    375.86584000	     39.86880000	     81.17185000	   1022.03961000	    113.13824000	   -136.45811000	   1034.97046000	    125.07877000	    -34.93821000	    736.52234000	   1571.58154000	    106.42087000	    748.24200000	   1574.96411000	    -31.66723000	    749.33246000	   1747.60767000	     46.74146000
2      0.01000000	    617.46685948	   1054.00701216	    169.51750843	    640.49553369	   1043.02535747	    -89.91688903	    431.69959503	   1050.65916389	     28.14984421	    516.69863993	    740.73356565	    211.62963662	    570.44748699	    665.07506683	    123.53652602	    479.84787969	    625.98400674	    199.35837342	    660.75004442	    744.15602918	   -146.21940419	    754.40333656	    736.13618852	    -75.65485465	    699.44489424	    641.97587324	   -136.38743718	    358.91065242	    474.03342492	    186.87429331	    417.60596707	    412.17407773	    134.63428932	    339.57895227	    389.21816109	    190.50691492	    753.59820156	    444.88162792	   -128.92741058	    820.11912823	    411.85742291	    -80.10081095	    750.37196617	    397.35815857	   -137.93325326	    148.01810098	    117.77431351	    104.59987920	    288.34148054	     90.14603815	     67.87769393	    278.67609594	     74.88792803	    177.14311247	    417.94336319	     43.12348853	    110.59275634	    806.46874746	     64.80234868	    -50.65059784	    961.92015802	    117.41845052	    -29.74694486	    945.02918363	    106.26150244	   -122.54863850	   1073.29687496	    134.77067215	    -58.12651271	    660.95398352	   1353.14674475	     18.53940632	    566.74887113	   1449.23340075	    227.76692108	    596.49396748	   1467.49386251	   -189.51255881	    593.35836548	   1248.70885647	    277.57030565	    581.53983288	   1231.93103336	   -224.68848716	    566.49684031	   1142.68376692	    313.97706393	    519.01976958	   1143.78018968	   -261.81788730	    769.06998191	    971.37941144	    273.04852558	    744.32969400	    942.46812192	    326.53340354	    621.65845179	    913.84992845	   -219.44717738	    575.20687016	    904.02977110	   -277.42287386	    354.27660355	     35.99521540	    193.25536002	    366.07765942	     39.86187198	     81.02729684	   1015.74742996	    106.12734046	   -134.12117516	   1028.64658048	    117.21328540	    -32.39937102	    736.10452763	   1571.11824451	    103.78296756	    748.33609759	   1574.63496574	    -34.49242651	    750.22233802	   1746.95892594	     43.44484754
3      0.02000000	    618.38158064	   1052.92015769	    168.03346475	    641.60458810	   1042.00751587	    -91.49628976	    432.64095229	   1050.05796385	     26.27572859	    516.72762731	    740.27253461	    211.00484920	    570.50837899	    663.93335339	    123.31741552	    479.53141005	    625.52817447	    199.33380737	    662.00127038	    743.33402917	   -146.55267634	    757.77432755	    736.58218369	    -77.80055519	    701.20582790	    641.29164240	   -135.50348664	    357.24992136	    474.63166097	    187.18260421	    414.47631334	    411.57486692	    134.93989736	    335.87322542	    390.42218900	    190.99873549	    755.45302381	    443.50845364	   -128.45635190	    820.57037645	    409.17892183	    -78.59603315	    750.63255233	    396.80897730	   -137.05795896	    139.34255888	    122.89372370	    105.23362527	    279.18053656	     92.30279052	     68.72760306	    268.79488928	     76.15089155	    177.67125667	    406.32446178	     43.14127798	    110.54000559	    796.91298170	     66.23427250	    -49.67584016	    955.44418114	    112.15005074	    -26.81191159	    942.37435953	    104.28387688	   -122.11213427	   1067.45577485	    125.72664222	    -55.39602243	    661.60922295	   1352.52143657	     16.63097273	    567.02957943	   1448.79660363	    225.39989522	    596.34167489	   1465.93383613	   -192.31779165	    593.15707999	   1248.54806826	    275.39624051	    582.88430095	   1230.07474076	   -226.49366284	    565.97881524	   1142.58366577	    311.88161326	    520.43347096	   1141.55647703	   -263.45470240	    766.28403001	    968.74819250	    272.34853652	    741.32739697	    940.33615776	    325.67838492	    623.69886683	    911.69913865	   -220.91227679	    576.89116651	    902.00242820	   -278.96202293	    342.91241828	     35.63155663	    193.51583158	    355.78055788	     39.75987445	     80.89948634	   1008.97287395	     98.86684642	   -131.86370396	   1021.92028880	    109.17869418	    -29.96888607	    736.10988827	   1570.72413108	    100.86813457	    748.44956872	   1573.63883443	    -37.67509560	    750.80624006	   1746.61634439	     40.19816327
4      0.03000000	    619.91393130	   1052.03441069	    166.34541691	    643.07948392	   1041.26183680	    -93.67067012	    433.74433153	   1049.49261533	     24.37161376	    517.51775265	    739.78213679	    210.18298782	    570.43639814	    663.29697999	    123.10686352	    479.36645057	    625.15125788	    199.33065843	    663.35864703	    742.69465313	   -147.03200939	    760.26103634	    737.21080502	    -79.89373580	    702.39961101	    640.70276807	   -134.73590088	    356.16489153	    475.78684828	    187.66408129	    411.80487351	    410.67321255	    135.54614306	    332.95091228	    391.66143930	    191.29710937	    755.71728167	    442.23669616	   -127.13961890	    821.13770043	    407.42702006	    -77.31270719	    750.76752202	    396.34410679	   -136.37334896	    130.57872707	    128.59549955	    105.89799639	    269.80761415	     94.62870733	     69.61598423	    258.73234689	     77.63632754	    178.20195412	    394.30700882	     43.11917475	    110.40704147	    787.21932087	     67.65594253	    -48.97265571	    948.46425093	    106.90290695	    -24.16586578	    935.14394743	     99.00652352	   -120.98142301	   1061.04692498	    116.57394593	    -52.92380983	    662.83351428	   1351.93865677	     14.36339971	    567.44714748	   1448.32563893	    222.72474299	    596.28234592	   1464.35109029	   -195.14959055	    593.04356498	   1248.68466340	    273.22139629	    584.70392179	   1228.23696686	   -228.34795145	    565.28101020	   1142.85125668	    309.20273873	    522.44058927	   1139.67817424	   -265.80752819	    763.13175128	    965.85957272	    271.65356639	    737.17775375	    937.99749258	    324.93584424	    625.89012610	    909.77694324	   -222.69252189	    579.10020911	    899.78413554	   -280.64010927	    332.12633035	     34.91394410	    193.88617581	    344.97359163	     39.52157878	     80.80593014	   1001.58633440	     91.46734778	   -129.84224915	   1014.70314876	    101.16559111	    -27.82840785	    736.49897892	   1570.52829331	     97.74613282	    748.70587665	   1572.16019236	    -41.04688544	    751.00827859	   1746.64698740	     37.01165510
